<?xml version="1.0" encoding="utf-8"?>
<!-- Generator: Adobe Illustrator 15.1.0, SVG Export Plug-In  -->
<!DOCTYPE svg PUBLIC "-//W3C//DTD SVG 1.1//EN" "http://www.w3.org/Graphics/SVG/1.1/DTD/svg11.dtd" [
	<!ENTITY ns_flows "http://ns.adobe.com/Flows/1.0/">
]>
<svg version="1.1"
	 xmlns="http://www.w3.org/2000/svg" xmlns:xlink="http://www.w3.org/1999/xlink" xmlns:a="http://ns.adobe.com/AdobeSVGViewerExtensions/3.0/"
	 x="0px" y="0px" width="32px" height="32px" viewBox="0 0 32 32" enable-background="new 0 0 32 32" xml:space="preserve">
<defs>
</defs>
<path fill="#FFFFFF" d="M32,29c0,1.657-1.343,3-3,3H3c-1.657,0-3-1.343-3-3V3c0-1.657,1.343-3,3-3h26c1.657,0,3,1.343,3,3V29z"/>
<path fill="#231F20" d="M4.11,24.953V2.533h7.684c2.535,0,4.465,0.508,5.79,1.524c1.324,1.016,1.987,2.531,1.987,4.542
	c0,1.027-0.278,1.951-0.831,2.772c-0.556,0.821-1.367,1.457-2.435,1.909c1.211,0.328,2.146,0.947,2.809,1.855
	c0.661,0.908,0.996,1.999,0.996,3.272c0,2.104-0.679,3.721-2.027,4.851c-1.35,1.131-3.281,1.694-5.797,1.694H4.11z M8.006,11.971
	h3.819c1.211,0,2.158-0.274,2.841-0.824c0.683-0.549,1.023-1.326,1.023-2.332c0-1.108-0.316-1.909-0.947-2.402
	c-0.632-0.493-1.614-0.739-2.949-0.739H8.006V11.971z M8.006,14.835v6.978h4.327c1.221,0,2.176-0.304,2.864-0.906
	c0.688-0.604,1.031-1.44,1.031-2.514c0-2.32-1.191-3.505-3.572-3.558H8.006z"/>
<path fill="#007BFF" d="M12.221,29.918V7.496h7.685c2.535,0,4.465,0.508,5.791,1.525c1.324,1.016,1.985,2.531,1.985,4.542
	c0,1.027-0.277,1.951-0.831,2.772c-0.555,0.82-1.365,1.458-2.434,1.909c1.213,0.329,2.148,0.95,2.812,1.858
	c0.661,0.908,0.992,1.997,0.992,3.269c0,2.105-0.676,3.722-2.023,4.853c-1.352,1.128-3.283,1.694-5.799,1.694H12.221z
	 M16.116,16.937h3.819c1.213,0,2.159-0.275,2.841-0.825c0.685-0.549,1.025-1.328,1.025-2.332c0-1.109-0.316-1.91-0.948-2.403
	c-0.631-0.493-1.613-0.74-2.948-0.74h-3.789V16.937z M16.116,19.799v6.976h4.329c1.221,0,2.175-0.299,2.861-0.903
	c0.688-0.603,1.032-1.441,1.032-2.516c0-2.319-1.188-3.505-3.572-3.557H16.116z"/>
</svg>
