<svg version="1.1" id="Layer_1" xmlns="http://www.w3.org/2000/svg" xmlns:xlink="http://www.w3.org/1999/xlink" x="0px" y="0px"
	 width="32px" height="32px" viewBox="0 0 32 32" enable-background="new 0 0 32 32" xml:space="preserve">
<rect width="32" height="32"/>
<path fill="#FFFFFF" d="M4.441,29.115h14.409c5.682,0,8.591-2.574,8.591-7.473v-0.076c0-3.641-1.85-5.853-5.413-6.482v-0.344
	c2.987-0.572,4.546-2.517,4.546-5.682V8.965c0-4.309-2.715-6.538-8.031-6.538H4.441V29.115z M10.124,13.35V6.202h6.724
	c2.715,0,4.064,1.182,4.064,3.507v0.076c0,2.363-1.35,3.564-4.064,3.564H10.124z M10.124,25.321v-8.502h6.896
	c2.986,0,4.469,1.41,4.469,4.175v0.076c0,2.821-1.482,4.251-4.469,4.251H10.124z"/>
</svg>
